<?xml version="1.0" encoding="UTF-8" standalone="no"?>
<!-- Created with Inkscape (http://www.inkscape.org/) -->

<svg
   xmlns:osb="http://www.openswatchbook.org/uri/2009/osb"
   xmlns:dc="http://purl.org/dc/elements/1.1/"
   xmlns:cc="http://creativecommons.org/ns#"
   xmlns:rdf="http://www.w3.org/1999/02/22-rdf-syntax-ns#"
   xmlns:svg="http://www.w3.org/2000/svg"
   xmlns="http://www.w3.org/2000/svg"
   xmlns:xlink="http://www.w3.org/1999/xlink"
   xmlns:sodipodi="http://sodipodi.sourceforge.net/DTD/sodipodi-0.dtd"
   xmlns:inkscape="http://www.inkscape.org/namespaces/inkscape"
   width="215.93117mm"
   height="115.0281mm"
   viewBox="0 0 215.93117 115.0281"
   version="1.1"
   id="svg8"
   inkscape:version="0.92.1 r"
   sodipodi:docname="januszcloud.svg">
  <defs
     id="defs2">
    <linearGradient
       id="linearGradient6643"
       osb:paint="solid">
      <stop
         style="stop-color:#00ffff;stop-opacity:1;"
         offset="0"
         id="stop6641" />
    </linearGradient>
    <linearGradient
       inkscape:collect="always"
       id="linearGradient5134-3">
      <stop
         style="stop-color:#008080;stop-opacity:1;"
         offset="0"
         id="stop5130" />
      <stop
         style="stop-color:#005252;stop-opacity:1"
         offset="1"
         id="stop5132" />
    </linearGradient>
    <linearGradient
       inkscape:collect="always"
       id="linearGradient5036">
      <stop
         style="stop-color:#502d16;stop-opacity:1;"
         offset="0"
         id="stop5032" />
      <stop
         style="stop-color:#9d582b;stop-opacity:1"
         offset="1"
         id="stop5034" />
    </linearGradient>
    <linearGradient
       inkscape:collect="always"
       xlink:href="#linearGradient5036"
       id="linearGradient5038"
       x1="35.12521"
       y1="199.9696"
       x2="218.63087"
       y2="184.85057"
       gradientUnits="userSpaceOnUse"
       gradientTransform="matrix(1.157625,0,0,1.157625,-27.106954,-31.930636)" />
    <linearGradient
       inkscape:collect="always"
       xlink:href="#linearGradient5134-3"
       id="linearGradient5136"
       x1="44.723145"
       y1="111.11614"
       x2="207.66843"
       y2="85.719673"
       gradientUnits="userSpaceOnUse" />
    <linearGradient
       inkscape:collect="always"
       xlink:href="#linearGradient5036"
       id="linearGradient6661"
       x1="204.5036"
       y1="812.39954"
       x2="825.41815"
       y2="812.39954"
       gradientUnits="userSpaceOnUse"
       gradientTransform="matrix(0.3216027,0,0,0.3216027,-44.894011,-75.152785)" />
  </defs>
  <sodipodi:namedview
     id="base"
     pagecolor="#ffffff"
     bordercolor="#666666"
     borderopacity="1.0"
     inkscape:pageopacity="0.0"
     inkscape:pageshadow="2"
     inkscape:zoom="0.49497475"
     inkscape:cx="563.26109"
     inkscape:cy="284.16377"
     inkscape:document-units="mm"
     inkscape:current-layer="layer1"
     showgrid="false"
     inkscape:window-width="1362"
     inkscape:window-height="715"
     inkscape:window-x="0"
     inkscape:window-y="51"
     inkscape:window-maximized="0" />
  <metadata
     id="metadata5">
    <rdf:RDF>
      <cc:Work
         rdf:about="">
        <dc:format>image/svg+xml</dc:format>
        <dc:type
           rdf:resource="http://purl.org/dc/dcmitype/StillImage" />
        <dc:title></dc:title>
      </cc:Work>
    </rdf:RDF>
  </metadata>
  <g
     inkscape:label="Layer 1"
     inkscape:groupmode="layer"
     id="layer1"
     transform="translate(-14.429976,-128.9185)">
    <path
       style="fill:url(#linearGradient5038);fill-opacity:1;stroke:none;stroke-width:0.30628827;stroke-opacity:1"
       d="m 160.64596,129.00906 c -36.88665,0.66556 -73.869025,2.58118 -110.294284,8.73282 -15.552467,8.13579 -24.134377,24.55049 -31.254407,39.83077 -7.807623,20.07619 -5.26809,43.0138 3.52729,62.33445 12.516307,4.77317 26.150741,1.59111 39.100449,3.67835 39.090562,1.645 78.142592,-2.5098 116.670362,-8.80278 13.91817,-1.79079 27.92942,-3.94688 41.14408,-8.84772 12.49267,2.62388 12.09771,-14.70736 8.9958,-22.50014 -2.92745,-19.85463 -8.35254,-40.55572 -22.83018,-55.28304 -11.51161,-12.18355 -28.08107,-20.1819 -45.05911,-19.14271 z m -24.9278,7.24205 c 19.57865,0.98863 42.1576,0.2537 57.06337,15.25958 14.8669,14.27044 20.88151,35.31987 21.75349,55.4023 5.93806,11.72976 -7.17561,19.5254 -17.29684,17.54086 -14.58106,3.69788 -29.37876,6.51607 -44.42861,7.26044 -40.06832,3.38673 -80.753102,7.26914 -120.708369,0.68917 -2.768949,-15.56367 -9.577801,-31.28952 -5.195302,-47.25836 2.822728,-14.24586 10.506282,-26.96434 19.260931,-38.33764 1.300461,-10.11158 15.643307,-2.44678 22.567284,-5.26888 22.366224,-1.28779 44.528506,-5.49911 66.984046,-5.28747 z"
       id="path12"
       inkscape:connector-curvature="0" />
    <path
       style="fill:url(#linearGradient6661);fill-opacity:1;stroke:none;stroke-width:0.32486778;stroke-opacity:1"
       d="m 60.175921,237.91722 c -9.501791,-0.45034 -20.235476,-1.51867 -30.963931,-3.08186 -1.479271,-0.21555 -1.507442,-0.24221 -1.694009,-1.60338 -0.104349,-0.76129 -1.228423,-5.75083 -2.497943,-11.08788 -4.851886,-20.39725 -5.215884,-26.56464 -2.279166,-38.61693 2.977652,-12.22029 8.32291,-23.09533 17.299619,-35.19643 1.255457,-1.69243 2.504651,-3.74869 2.775985,-4.56945 0.490083,-1.48249 1.681814,-3.05718 2.753758,-3.63867 1.613806,-0.87546 4.024067,-0.97335 10.222904,-0.41526 5.809875,0.52309 6.484772,0.52527 9.90847,0.032 2.020662,-0.29116 6.524649,-0.76471 10.008857,-1.05228 3.484211,-0.28759 11.597773,-1.09084 18.030162,-1.785 24.578703,-2.65245 31.304083,-3.07896 44.182013,-2.80196 19.90986,0.42826 30.77527,1.72636 39.88779,4.76536 10.5226,3.50927 18.02744,9.11218 25.42017,18.97799 8.44986,11.27662 14.03536,27.518 15.43643,44.88574 0.2473,3.06551 0.63045,5.3706 1.19439,7.18553 1.47735,4.75454 0.64434,8.33384 -2.72632,11.71458 -3.19703,3.20657 -8.87367,5.18491 -13.83658,4.82211 -2.2056,-0.16122 -3.18238,-0.0239 -7.79683,1.0955 -11.36514,2.75718 -25.12406,5.06999 -34.67588,5.82879 -2.41214,0.19163 -8.77143,0.71038 -14.13174,1.15277 -24.2843,2.00426 -37.05599,2.87171 -50.192073,3.40905 -8.996419,0.368 -28.362062,0.35721 -36.326076,-0.0203 z"
       id="path5181"
       inkscape:connector-curvature="0" />
  </g>
  <g
     inkscape:groupmode="layer"
     id="layer2"
     inkscape:label="Layer 2"
     transform="translate(-14.429976,-41.918497)">
    <path
       style="fill:url(#linearGradient5136);fill-opacity:1;stroke:none;stroke-width:0.26458332;stroke-opacity:1"
       d="m 104.6227,46.08431 c -11.606203,4.75471 -23.281169,9.06303 -35.888586,8.45427 -11.58029,4.87717 -16.91687,17.11648 -27.6421,23.16306 -8.9345,5.75478 1.44668,18.74933 4.52895,14.78035 -15.01421,3.12858 -15.06976,21.24555 -10.48596,29.23151 -9.38822,12.06507 5.16,27.91623 18.11855,28.38994 22.924457,5.97108 46.749116,1.18566 70.036326,0.74149 30.47759,-2.40289 61.89095,-6.44611 88.77311,-22.07004 13.70055,-1.27819 17.99298,-21.64541 1.76912,-23.13212 -8.99773,-0.11857 -15.76069,8.82484 -2.57302,8.37804 10.20452,10.16101 -11.16652,13.52471 -16.78585,19.96338 -36.62861,11.00767 -75.41783,11.46862 -113.376779,12.5611 -14.91772,-1.87173 -42.570727,-5.81427 -37.485517,-24.94873 4.02477,-7.28431 12.19944,-7.52069 1.1122,-10.48042 -9.56163,-8.96299 4.73549,-16.80347 8.15152,-20.21071 -6.42708,-0.0108 1.18134,-4.58662 -4.50839,-8.78679 -2.08689,-10.2229 20.321945,-5.24457 14.696432,-18.07702 7.189009,-12.37931 18.792011,7.2011 24.620184,-6.41555 11.819691,-11.24534 21.35643,6.57273 32.23779,-3.44785 11.97355,-3.7628 11.08121,15.83818 20.73378,4.10349 8.73211,-8.11933 17.20949,-0.63179 22.4864,5.57041 11.85406,-8.5569 23.8207,-5.88236 24.18323,9.96716 15.32317,-8.62298 13.0844,12.47333 12.01906,17.41369 16.58256,4.67751 5.46308,11.87832 -1.18033,17.66508 10.443,2.81143 30.39213,-14.75762 14.91722,-21.78901 -6.56018,-6.92791 1.61261,-24.21563 -14.10199,-22.99467 C 192.5283,55.18359 183.69513,46.02901 172.9077,55.03263 163.54996,49.75576 154.26951,44.14062 144.49084,51.96399 130.09214,41.63926 118.98916,54.4654 104.6227,46.08431 Z m 119.45214,74.4797 0.23997,-0.0815 z M 96.91981,50.56569 c -1.88775,2.10035 -4.602085,1.54107 0,0 z m -7.759217,4.52221 -2.28039,1.19266 z m 82.023937,2.7218 c -0.0181,0.93456 -0.72926,-0.41452 0,0 z m -111.051626,3.85144 -0.5366,0.31802 z m -13.45137,12.80801 c -0.0512,1.13605 -1.67812,-0.0914 0,0 z m 3.6251,17.03668 c -1.37839,0.88464 -0.94275,0.60505 0,0 z m -10.81123,6.40995 -0.45235,0.26008 z m 177.505966,1.68723 -2.63541,1.41059 z m -178.932746,21.7041 -1.31303,0.68248 z"
       id="path5045"
       inkscape:connector-curvature="0" />
    <path
       style="fill:#00ffff;fill-opacity:1;stroke:none;stroke-width:1.01015258;stroke-opacity:1"
       d="m 296.11786,552.17343 c -65.47137,-9.78776 -97.57231,-20.73289 -117.0979,-39.92568 -11.84069,-11.63887 -16.32965,-23.03978 -15.52794,-39.43732 0.63902,-13.07001 2.32072,-16.20299 16.08494,-29.96601 6.24557,-6.24501 10.97996,-11.80483 10.97996,-12.89429 0,-2.54425 -4.95561,-5.48696 -13.63706,-8.09785 -8.12785,-2.44441 -12.05782,-5.65734 -16.29663,-13.32325 -4.11368,-7.43962 -4.10742,-16.88874 0.0168,-25.28803 3.67411,-7.4827 13.14395,-17.57935 27.39156,-29.20463 6.11142,-4.98659 11.2429,-9.4012 11.40328,-9.81024 0.16038,-0.40904 -1.52991,-1.03498 -3.75619,-1.39098 -5.19207,-0.83025 -6.50452,-3.10069 -5.1605,-8.92727 2.24411,-9.72858 0.9527,-15.91379 -4.35852,-20.87506 -5.32282,-4.97212 -4.28602,-13.68384 2.34111,-19.67106 5.00363,-4.52047 8.95754,-6.51973 22.25925,-11.2552 13.30842,-4.73786 20.40511,-8.04583 24.31006,-11.33164 6.62435,-5.57401 8.64837,-14.57508 5.41738,-24.09173 -1.57514,-4.63948 -1.56548,-4.70677 1.26269,-8.79475 3.55703,-5.14151 9.47423,-9.49954 14.87496,-10.95546 6.06498,-1.63498 13.44825,-0.4033 28.84435,4.81182 16.06765,5.44259 24.17971,6.48734 30.78498,3.96476 4.93411,-1.88435 10.4875,-7.4121 13.62499,-13.5621 2.63436,-5.16377 9.0405,-10.59066 17.25119,-14.61416 6.25946,-3.06733 7.10832,-3.21448 18.18274,-3.15202 11.37,0.0641 11.99226,0.18994 29.29443,5.92308 26.14163,8.66212 37.9713,8.8478 51.0127,0.80068 2.22233,-1.37128 5.05878,-3.42111 6.30321,-4.55519 1.75921,-1.60321 4.05821,-2.1659 10.33351,-2.52917 11.83234,-0.68496 16.08821,1.66894 30.04512,16.61785 5.98765,6.41324 12.11643,12.29638 13.61951,13.07364 6.50973,3.36632 12.61881,0.65769 23.96117,-10.62384 16.04061,-15.95461 32.3568,-19.64205 50.12373,-11.3279 9.5047,4.44778 14.93227,8.47523 26.31979,19.53022 5.60631,5.44261 10.47274,9.89566 10.81428,9.89566 0.34153,0 2.34579,-1.18018 4.4539,-2.62262 7.05514,-4.82736 19.66013,-10.63546 27.34969,-12.60211 21.70927,-5.5523 39.42822,0.57835 49.88203,17.25887 4.11413,6.56466 8.92864,25.4803 8.92864,35.07948 0,0.90055 1.5734,0.50891 5.06627,-1.26106 19.44131,-9.85166 33.22444,-5.62803 39.45158,12.08932 3.88888,11.06454 4.5028,35.17602 1.34065,52.6536 -0.56355,3.11479 -0.56089,3.11679 8.36287,6.3089 26.13271,9.34791 30.22521,21.49181 13.22551,39.24483 -4.78043,4.99226 -21.08722,19.61002 -26.00137,23.30818 -2.84813,2.14338 16.29688,2.71179 23.01926,0.68345 l 2.34039,-0.70617 -2.08408,3.41847 c -6.04316,9.91252 1.99681,17.05554 19.19725,17.05554 6.68474,0 6.8871,0.0782 9.80258,3.78807 4.65525,5.92369 6.2842,9.85255 6.2842,15.15689 0,11.21895 -9.75502,19.74921 -39.73787,34.74876 -14.29528,7.15152 -23.11846,12.40238 -29.29885,17.43638 -4.76721,3.88294 -6.97647,4.76954 -22.42148,8.9979 -82.78074,22.66277 -174.20694,34.23535 -308.56221,39.05728 -86.60589,3.10824 -101.77327,3.36548 -111.62186,1.89316 z"
       id="path5128"
       inkscape:connector-curvature="0"
       transform="scale(0.26458333)" />
  </g>
  <g
     inkscape:groupmode="layer"
     id="layer3"
     inkscape:label="Layer 3"
     transform="translate(-14.429976,-41.918497)">
    <path
       style="fill:#2b1100;fill-opacity:1;stroke:none;stroke-width:0.26692075;stroke-opacity:1"
       d="M 89.160593,46.065468 C 78.080656,60.322894 78.455133,79.32488 77.54011,96.548013 c -0.6697,16.156887 0.05326,32.715347 5.010631,48.157737 4.562405,3.68233 2.270641,12.95264 -3.736525,11.42951 -1.846611,-0.58659 -8.489228,1.87492 -11.052335,-2.41333 -4.238035,-6.75941 -2.869937,-15.82977 -4.846517,-23.55714 -1.991835,-21.23125 -0.78485,-42.774371 3.112572,-63.709249 1.813759,-8.021618 6.955275,-16.31155 15.512665,-17.853013 2.575209,-0.724171 5.201512,-1.351505 7.619992,-2.53706 z"
       id="path7068"
       inkscape:connector-curvature="0" />
  </g>
</svg>
